<!-- <svg xmlns="http://www.w3.org/2000/svg" viewBox="0 0 841.9 595.3">
    <g fill="#61DAFB">
        <path d="M666.3 296.5c0-32.5-40.7-63.3-103.1-82.4 14.4-63.6 8-114.2-20.2-130.4-6.5-3.8-14.1-5.6-22.4-5.6v22.3c4.6 0 8.3.9 11.4 2.6 13.6 7.8 19.5 37.5 14.9 75.7-1.1 9.4-2.9 19.3-5.1 29.4-19.6-4.8-41-8.5-63.5-10.9-13.5-18.5-27.5-35.3-41.6-50 32.6-30.3 63.2-46.9 84-46.9V78c-27.5 0-63.5 19.6-99.9 53.6-36.4-33.8-72.4-53.2-99.9-53.2v22.3c20.7 0 51.4 16.5 84 46.6-14 14.7-28 31.4-41.3 49.9-22.6 2.4-44 6.1-63.6 11-2.3-10-4-19.7-5.2-29-4.7-38.2 1.1-67.9 14.6-75.8 3-1.8 6.9-2.6 11.5-2.6V78.5c-8.4 0-16 1.8-22.6 5.6-28.1 16.2-34.4 66.7-19.9 130.1-62.2 19.2-102.7 49.9-102.7 82.3 0 32.5 40.7 63.3 103.1 82.4-14.4 63.6-8 114.2 20.2 130.4 6.5 3.8 14.1 5.6 22.5 5.6 27.5 0 63.5-19.6 99.9-53.6 36.4 33.8 72.4 53.2 99.9 53.2 8.4 0 16-1.8 22.6-5.6 28.1-16.2 34.4-66.7 19.9-130.1 62-19.1 102.5-49.9 102.5-82.3zm-130.2-66.7c-3.7 12.9-8.3 26.2-13.5 39.5-4.1-8-8.4-16-13.1-24-4.6-8-9.5-15.8-14.4-23.4 14.2 2.1 27.9 4.7 41 7.9zm-45.8 106.5c-7.8 13.5-15.8 26.3-24.1 38.2-14.9 1.3-30 2-45.2 2-15.1 0-30.2-.7-45-1.9-8.3-11.9-16.4-24.6-24.2-38-7.6-13.1-14.5-26.4-20.8-39.8 6.2-13.4 13.2-26.8 20.7-39.9 7.8-13.5 15.8-26.3 24.1-38.2 14.9-1.3 30-2 45.2-2 15.1 0 30.2.7 45 1.9 8.3 11.9 16.4 24.6 24.2 38 7.6 13.1 14.5 26.4 20.8 39.8-6.3 13.4-13.2 26.8-20.7 39.9zm32.3-13c5.4 13.4 10 26.8 13.8 39.8-13.1 3.2-26.9 5.9-41.2 8 4.9-7.7 9.8-15.6 14.4-23.7 4.6-8 8.9-16.1 13-24.1zM421.2 430c-9.3-9.6-18.6-20.3-27.8-32 9 .4 18.2.7 27.5.7 9.4 0 18.7-.2 27.8-.7-9 11.7-18.3 22.4-27.5 32zm-74.4-58.9c-14.2-2.1-27.9-4.7-41-7.9 3.7-12.9 8.3-26.2 13.5-39.5 4.1 8 8.4 16 13.1 24 4.7 8 9.5 15.8 14.4 23.4zM420.7 163c9.3 9.6 18.6 20.3 27.8 32-9-.4-18.2-.7-27.5-.7-9.4 0-18.7.2-27.8.7 9-11.7 18.3-22.4 27.5-32zm-74 58.9c-4.9 7.7-9.8 15.6-14.4 23.7-4.6 8-8.9 16-13 24-5.4-13.4-10-26.8-13.8-39.8 13.1-3.1 26.9-5.8 41.2-7.9zm-90.5 125.2c-35.4-15.1-58.3-34.9-58.3-50.6 0-15.7 22.9-35.6 58.3-50.6 8.6-3.7 18-7 27.7-10.1 5.7 19.6 13.2 40 22.5 60.9-9.2 20.8-16.6 41.1-22.2 60.6-9.9-3.1-19.3-6.5-28-10.2zM310 490c-13.6-7.8-19.5-37.5-14.9-75.7 1.1-9.4 2.9-19.3 5.1-29.4 19.6 4.8 41 8.5 63.5 10.9 13.5 18.5 27.5 35.3 41.6 50-32.6 30.3-63.2 46.9-84 46.9-4.5-.1-8.3-1-11.3-2.7zm237.2-76.2c4.7 38.2-1.1 67.9-14.6 75.8-3 1.8-6.9 2.6-11.5 2.6-20.7 0-51.4-16.5-84-46.6 14-14.7 28-31.4 41.3-49.9 22.6-2.4 44-6.1 63.6-11 2.3 10.1 4.1 19.8 5.2 29.1zm38.5-66.7c-8.6 3.7-18 7-27.7 10.1-5.7-19.6-13.2-40-22.5-60.9 9.2-20.8 16.6-41.1 22.2-60.6 9.9 3.1 19.3 6.5 28.1 10.2 35.4 15.1 58.3 34.9 58.3 50.6-.1 15.7-23 35.6-58.4 50.6zM320.8 78.4z"/>
        <circle cx="420.9" cy="296.5" r="45.7"/>
        <path d="M520.5 78.1z"/>
    </g>
</svg> -->


<svg id="Layer_1" data-name="Layer 1" xmlns="http://www.w3.org/2000/svg" viewBox="0 0 17 23.35"><defs><style>.cls-1{fill:#fff;}</style></defs><title>rock-n-roll</title><path class="cls-1" d="M16,13.18a.5.5,0,0,1-.5-.5V11.09c0-.91-.46-1.84-1.5-1.84A1.54,1.54,0,0,0,12.5,11a.5.5,0,0,1-1,0A2.51,2.51,0,0,1,14,8.25a2.6,2.6,0,0,1,2.5,2.84v1.58A.5.5,0,0,1,16,13.18Z" transform="translate(-3.5 -0.32)"/><path class="cls-1" d="M8.5,11.13h-1A2.58,2.58,0,0,1,10,8.32a2.53,2.53,0,0,1,2.5,2.77h-1A1.56,1.56,0,0,0,10,9.32C9,9.33,8.5,10.23,8.5,11.13Z" transform="translate(-3.5 -0.32)"/><path class="cls-1" d="M8.5,23.68a5,5,0,0,1-5-5V3.09A2.53,2.53,0,0,1,6,.32,2.58,2.58,0,0,1,8.5,3.13v7.55a.5.5,0,1,1-1,0V3.13C7.5,2.23,7,1.32,6,1.32s-1.5,1-1.5,1.77V18.68a4,4,0,0,0,4,4,.5.5,0,0,1,0,1Z" transform="translate(-3.5 -0.32)"/><path class="cls-1" d="M9,18.18a.5.5,0,0,1-.5-.5V16.14l1.27-2.19a2.07,2.07,0,0,0,.3-1.34,1.34,1.34,0,0,0-.69-1,1.56,1.56,0,0,0-2.18.78L4.43,17.18a.5.5,0,1,1-.87-.5l2.75-4.77a2.53,2.53,0,0,1,3.55-1.15,2.35,2.35,0,0,1,1.18,1.68,3.06,3.06,0,0,1-.42,2l-1.13,2v1.27A.5.5,0,0,1,9,18.18Z" transform="translate(-3.5 -0.32)"/><path class="cls-1" d="M15.5,23.68a.5.5,0,1,1,0-1,4,4,0,0,0,4-4V3.09A1.56,1.56,0,0,0,18,1.32c-1,0-1.5.9-1.5,1.81v7.55a.5.5,0,1,1-1,0V3.13A2.58,2.58,0,0,1,18,.32a2.53,2.53,0,0,1,2.5,2.77V18.68A5,5,0,0,1,15.5,23.68Z" transform="translate(-3.5 -0.32)"/><path class="cls-1" d="M12,13.18a.5.5,0,0,1-.5-.5v-2a.5.5,0,0,1,1,0v2A.5.5,0,0,1,12,13.18Z" transform="translate(-3.5 -0.32)"/></svg>
